<?xml version="1.0" standalone="no"?><!DOCTYPE svg PUBLIC "-//W3C//DTD SVG 1.1//EN" "http://www.w3.org/Graphics/SVG/1.1/DTD/svg11.dtd"><svg t="1608260431495" class="icon" viewBox="0 0 1024 1024" version="1.1" xmlns="http://www.w3.org/2000/svg" p-id="14893" xmlns:xlink="http://www.w3.org/1999/xlink" width="300" height="300"><defs><style type="text/css"></style></defs><path d="M960 85.3504c11.776 0 21.3504 9.5232 21.3504 21.2992v42.7008c0 11.776-9.5744 21.2992-21.3504 21.2992H896V910.336a28.4672 28.4672 0 0 1-32.0512 28.2112l-350.9248-45.1584-352.9728 45.2096a28.4672 28.4672 0 0 1-32.0512-28.2112V170.6496H64a21.3504 21.3504 0 0 1-21.3504-21.2992v-42.7008c0-11.776 9.5744-21.2992 21.3504-21.2992h896zM362.7008 512H320c-10.9568 0-19.968 8.192-21.1968 18.8416l-0.1536 2.5088v42.6496c0 10.9568 8.2432 19.968 18.8928 21.1968l2.4576 0.1536h42.6496c10.9568 0 19.968-8.2432 21.1968-18.8416l0.1536-2.5088v-42.6496A21.3504 21.3504 0 0 0 362.6496 512z m341.2992 0H490.7008c-10.9568 0-19.968 8.192-21.1968 18.8416l-0.1536 2.5088v42.6496c0 10.9568 8.192 19.968 18.8416 21.1968l2.5088 0.1536h213.2992c10.9568 0 19.968-8.2432 21.1968-18.8416l0.1536-2.5088v-42.6496A21.3504 21.3504 0 0 0 704 512zM362.6496 341.3504H320c-10.9568 0-19.968 8.192-21.1968 18.8416l-0.1536 2.4576v42.7008c0 10.9056 8.2432 19.968 18.8928 21.1968l2.4576 0.1024h42.6496c10.9568 0 19.968-8.192 21.1968-18.8416l0.1536-2.4576v-42.7008a21.3504 21.3504 0 0 0-21.3504-21.2992z m256 0h-128c-10.9056 0-19.968 8.192-21.1456 18.8416l-0.1536 2.4576v42.7008c0 10.9056 8.192 19.968 18.8416 21.1968l2.5088 0.1024h128c10.9056 0 19.968-8.192 21.1456-18.8416l0.1536-2.4576v-42.7008a21.3504 21.3504 0 0 0-21.2992-21.2992z" p-id="14894" fill="#e6e6e6"></path></svg>