<?xml version="1.0" standalone="no"?><!DOCTYPE svg PUBLIC "-//W3C//DTD SVG 1.1//EN" "http://www.w3.org/Graphics/SVG/1.1/DTD/svg11.dtd"><svg t="1608259527172" class="icon" viewBox="0 0 1129 1024" version="1.1" xmlns="http://www.w3.org/2000/svg" p-id="13094" width="330.76171875" height="300" xmlns:xlink="http://www.w3.org/1999/xlink"><defs><style type="text/css"></style></defs><path d="M570.615 891.586a17.655 17.655 0 0 1-8.827-2.295l-328.74-189.793a17.655 17.655 0 0 1-8.827-15.36V304.552a17.655 17.655 0 0 1 8.827-15.36l328.74-189.793a17.655 17.655 0 0 1 17.655 0l328.74 189.793a17.655 17.655 0 0 1 8.827 15.36v379.586a17.655 17.655 0 0 1-8.828 15.36L579.442 889.29a17.655 17.655 0 0 1-8.827 2.295zM259.531 673.898l311.084 179.73L881.7 673.898V314.792l-311.084-179.73-311.084 179.73z" fill="#e6e6e6" p-id="13095"></path><path d="M570.615 673.015a19.244 19.244 0 0 1-8.827-2.295l-139.476-80.508a17.655 17.655 0 0 1-8.828-15.36V413.837a17.655 17.655 0 0 1 8.828-15.36l139.476-80.684a17.655 17.655 0 0 1 17.655 0l139.476 80.508a17.655 17.655 0 0 1 8.827 15.36v161.015a17.655 17.655 0 0 1-8.827 15.36l-139.476 80.86a19.244 19.244 0 0 1-8.828 2.12z m-121.82-108.05l121.82 70.621 121.82-70.62V423.724l-121.82-70.62-121.82 70.62z" fill="#e6e6e6" p-id="13096"></path><path d="M710.091 431.492a17.655 17.655 0 0 1-8.828-33.015l189.264-109.285a17.655 17.655 0 0 1 17.655 30.72L718.92 429.197a17.655 17.655 0 0 1-8.828 2.295z m-278.952 0a17.655 17.655 0 0 1-8.827-2.295L233.048 319.912a17.655 17.655 0 0 1 17.655-30.72l189.264 109.285a17.655 17.655 0 0 1-8.828 33.015z m0 161.016a17.655 17.655 0 0 1-14.124-7.239 17.655 17.655 0 0 1 3.708-24.717l139.476-102.93a17.655 17.655 0 0 1 24.54 3.708 17.655 17.655 0 0 1-3.53 24.717l-139.83 102.93a17.655 17.655 0 0 1-10.24 3.53z m139.476 299.078a17.655 17.655 0 0 1-17.655-17.655V655.36a17.655 17.655 0 0 1 35.31 0v218.571a17.655 17.655 0 0 1-17.655 17.655z" fill="#e6e6e6" p-id="13097"></path><path d="M710.091 592.508a17.655 17.655 0 0 1-10.593-3.531l-139.3-102.93a17.655 17.655 0 0 1-7.238-14.3V333.33a17.655 17.655 0 0 1 35.31 0v129.589l132.238 97.633a17.655 17.655 0 0 1 3.707 24.717 17.655 17.655 0 0 1-14.124 7.239z" fill="#e6e6e6" p-id="13098"></path></svg>