<?xml version="1.0" standalone="no"?><!DOCTYPE svg PUBLIC "-//W3C//DTD SVG 1.1//EN" "http://www.w3.org/Graphics/SVG/1.1/DTD/svg11.dtd"><svg t="1608258972239" class="icon" viewBox="0 0 1024 1024" version="1.1" xmlns="http://www.w3.org/2000/svg" p-id="10101" xmlns:xlink="http://www.w3.org/1999/xlink" width="200" height="200"><defs><style type="text/css"></style></defs><path d="M465.836973 28.782703c23.773405-18.957838 62.740757-19.981838 88.285405-2.546162 0 0 81.72627 61.689081 164.338163 89.835243 66.200216 22.555676 184.070919 40.351135 184.070918 40.351135 30.360216 5.12 56.070919 33.127784 57.094919 62.879135-0.027676 0 6.531459 107.32627-3.404108 290.013405a591.484541 591.484541 0 0 1-40.019027 150.749406 224.532757 224.532757 0 0 0-141.865513-50.148324v0.027675c-124.180757 0-224.864865 100.075243-224.864865 223.508757A221.682162 221.682162 0 0 0 595.248432 968.648649c-29.280865 9.188324-57.067243 13.837838-81.836973 13.837837-150.002162 0-446.630054-236.876108-448.539675-476.575135C59.724108 371.961081 63.792432 219.357405 63.792432 219.357405 64.345946 189.578378 90.222703 163.120432 120.389189 159.411892c0 0 79.788973-3.929946 179.670487-42.205406 107.990486-32.491243 165.804973-88.396108 165.804973-88.396108zM512 274.62573c-62.104216 0-112.44627 46.993297-112.44627 104.973838 0.166054 45.664865 32.020757 86.016 78.709621 99.687783v174.27373c0 17.048216 14.806486 30.886054 33.100108 30.886054 18.265946 0 33.072432-13.837838 33.072433-30.886054v-173.858595c47.408432-13.228973 79.927351-53.912216 79.982703-100.102918 0-57.980541-50.314378-104.973838-112.418595-104.973838z" p-id="10102" fill="#e6e6e6"></path><path d="M771.459459 636.540541a190.27027 190.27027 0 1 1 0 380.485189 190.27027 190.27027 0 0 1 0-380.457514z m110.97946 114.162162a17.989189 17.989189 0 0 0-12.979892 5.590486l-118.258162 122.437189-62.547027-64.761081a17.989189 17.989189 0 0 0-13.007568-5.590486 17.989189 17.989189 0 0 0-12.952216 5.590486 19.289946 19.289946 0 0 0-5.396757 13.422703c0 5.036973 1.937297 9.880216 5.396757 13.450378l75.58227 78.266811a17.933838 17.933838 0 0 0 25.932108 0l131.26573-135.887567a19.456 19.456 0 0 0-0.083027-26.928433 17.989189 17.989189 0 0 0-12.952216-5.590486z" p-id="10103" fill="#e6e6e6"></path></svg>