<?xml version="1.0" standalone="no"?><!DOCTYPE svg PUBLIC "-//W3C//DTD SVG 1.1//EN" "http://www.w3.org/Graphics/SVG/1.1/DTD/svg11.dtd"><svg t="1608258912959" class="icon" viewBox="0 0 1024 1024" version="1.1" xmlns="http://www.w3.org/2000/svg" p-id="8214" xmlns:xlink="http://www.w3.org/1999/xlink" width="200" height="200"><defs><style type="text/css"></style></defs><path d="M109.714286 475.428571h329.142857a36.571429 36.571429 0 0 0 36.571428-36.571428V109.714286a36.571429 36.571429 0 0 0-36.571428-36.571429H109.714286a36.571429 36.571429 0 0 0-36.571429 36.571429v329.142857a36.571429 36.571429 0 0 0 36.571429 36.571428z m18.285714-54.857142v-292.571429h292.571429v292.571429h-292.571429zM109.714286 950.857143h329.142857a36.571429 36.571429 0 0 0 36.571428-36.571429v-329.142857a36.571429 36.571429 0 0 0-36.571428-36.571428H109.714286a36.571429 36.571429 0 0 0-36.571429 36.571428v329.142857a36.571429 36.571429 0 0 0 36.571429 36.571429z m18.285714-54.857143v-292.571429h292.571429v292.571429h-292.571429zM585.142857 950.857143h329.142857a36.571429 36.571429 0 0 0 36.571429-36.571429v-329.142857a36.571429 36.571429 0 0 0-36.571429-36.571428h-329.142857a36.571429 36.571429 0 0 0-36.571428 36.571428v329.142857a36.571429 36.571429 0 0 0 36.571428 36.571429z m18.285714-54.857143v-292.571429h292.571429v292.571429h-292.571429z m146.285715-420.571429a201.142857 201.142857 0 1 0 0-402.285714 201.142857 201.142857 0 0 0 0 402.285714z m0-54.857142a146.285714 146.285714 0 1 1 0-292.571429 146.285714 146.285714 0 0 1 0 292.571429z" p-id="8215" fill="#e6e6e6"></path></svg>