<?xml version="1.0" standalone="no"?><!DOCTYPE svg PUBLIC "-//W3C//DTD SVG 1.1//EN" "http://www.w3.org/Graphics/SVG/1.1/DTD/svg11.dtd"><svg t="1608258949567" class="icon" viewBox="0 0 1024 1024" version="1.1" xmlns="http://www.w3.org/2000/svg" p-id="9130" xmlns:xlink="http://www.w3.org/1999/xlink" width="200" height="200"><defs><style type="text/css"></style></defs><path d="M668.612 120.47c-18.07 0-36.141 12.048-36.141 30.118v84.33c0 18.07 18.07 30.117 36.14 30.117s36.142-12.047 36.142-30.117v-84.33c6.023-18.07-12.047-30.117-36.141-30.117z" p-id="9131" fill="#e6e6e6"></path><path d="M867.388 975.812H156.612c-72.283 0-126.494-54.212-126.494-126.494V138.54c0-72.282 54.211-126.494 126.494-126.494h710.776c72.283 0 126.494 54.212 126.494 126.494v710.777c0 72.282-54.211 126.494-126.494 126.494zM156.612 84.329c-30.118 0-54.212 24.095-54.212 54.212v710.777c0 30.117 24.094 54.211 54.212 54.211h710.776c30.118 0 54.212-24.094 54.212-54.211V138.54c0-30.117-24.094-54.212-54.212-54.212H156.612z" p-id="9132" fill="#e6e6e6"></path><path d="M722.824 373.459H301.176c-24.094 0-48.188-12.047-66.258-24.094s-24.094-42.165-24.094-66.26V12.048h602.352v271.059c0 24.094-12.047 48.188-24.094 66.259-18.07 12.047-42.164 24.094-66.258 24.094zM283.106 84.329v198.777c0 6.023 0 12.047 6.023 12.047 0 0 6.024 6.023 12.047 6.023h421.648c6.023 0 12.047-6.023 12.047-6.023s6.023-6.024 6.023-12.047V84.329H283.106z" p-id="9133" fill="#e6e6e6"></path></svg>