<?xml version="1.0" standalone="no"?><!DOCTYPE svg PUBLIC "-//W3C//DTD SVG 1.1//EN" "http://www.w3.org/Graphics/SVG/1.1/DTD/svg11.dtd"><svg t="1608259241411" class="icon" viewBox="0 0 1024 1024" version="1.1" xmlns="http://www.w3.org/2000/svg" p-id="11981" xmlns:xlink="http://www.w3.org/1999/xlink" width="200" height="200"><defs><style type="text/css"></style></defs><path d="M512 128a170.666667 170.666667 0 0 1 118.869333 293.12l86.528 141.184A170.666667 170.666667 0 1 1 602.709333 768H421.290667A170.752 170.752 0 0 1 85.333333 725.333333a170.666667 170.666667 0 0 1 220.714667-163.2l87.04-141.013333A170.666667 170.666667 0 0 1 512 128zM256 640a85.333333 85.333333 0 1 0 0 170.666667 85.333333 85.333333 0 0 0 0-170.666667z m512 0a85.333333 85.333333 0 1 0 0 170.666667 85.333333 85.333333 0 0 0 0-170.666667z m-123.178667-32.810667l-88.149333-143.786666a170.88 170.88 0 0 1-89.344 0l-88.533333 143.36c20.138667 20.906667 35.029333 46.933333 42.496 75.946666h181.418666c7.424-28.842667 22.186667-54.698667 42.112-75.52zM512 213.333333a85.333333 85.333333 0 1 0 0 170.666667 85.333333 85.333333 0 0 0 0-170.666667z" p-id="11982" fill="#e6e6e6"></path></svg>